<?xml version="1.0" standalone="no"?>
<!DOCTYPE svg PUBLIC "-//W3C//DTD SVG 20010904//EN"
 "http://www.w3.org/TR/2001/REC-SVG-20010904/DTD/svg10.dtd">
<svg version="1.0" xmlns="http://www.w3.org/2000/svg"
 width="700.000000pt" height="700.000000pt" viewBox="0 0 700.000000 700.000000"
 preserveAspectRatio="xMidYMid meet">
<metadata>
Created by potrace 1.14, written by Peter Selinger 2001-2017
</metadata>
<g transform="translate(0.000000,700.000000) scale(0.100000,-0.100000)"
fill="#000000" stroke="none">
<path d="M720 3570 l0 -2250 465 0 465 0 0 890 0 890 750 0 750 0 0 390 0 390
-750 0 -750 0 0 575 0 575 805 0 805 0 0 395 0 395 -1270 0 -1270 0 0 -2250z"/>
<path d="M3830 4400 l0 -360 738 -2 737 -3 -782 -1080 -783 -1079 0 -278 0
-278 1340 0 1340 0 0 360 0 360 -790 2 -790 3 760 1050 760 1050 0 308 0 307
-1265 0 -1265 0 0 -360z"/>
</g>
</svg>
